<?xml version="1.0" standalone="no"?>
<!DOCTYPE svg PUBLIC "-//W3C//DTD SVG 20010904//EN"
 "http://www.w3.org/TR/2001/REC-SVG-20010904/DTD/svg10.dtd">
<svg version="1.0" xmlns="http://www.w3.org/2000/svg"
 width="1024.000000pt" height="1024.000000pt" viewBox="0 0 1024.000000 1024.000000"
 preserveAspectRatio="xMidYMid meet">
<metadata>
Created by potrace 1.16, written by Peter Selinger 2001-2019
</metadata>
<g transform="translate(0.000000,1024.000000) scale(0.100000,-0.100000)"
fill="#000000" stroke="none">
<path d="M4805 9204 c-301 -31 -512 -68 -756 -134 -949 -258 -1781 -860 -2337
-1692 -352 -527 -575 -1126 -657 -1769 -17 -136 -34 -449 -29 -545 2 -32 5
-122 9 -199 20 -497 174 -1066 424 -1565 307 -612 762 -1138 1331 -1537 737
-518 1652 -784 2524 -735 764 44 1436 267 2066 687 235 157 403 297 625 519
282 283 442 485 624 791 301 506 471 995 557 1600 25 180 31 682 10 883 -56
529 -190 991 -420 1446 -562 1112 -1591 1909 -2802 2171 -291 63 -429 77 -799
80 -181 1 -348 1 -370 -1z m1385 -1667 c0 -2 -41 -93 -91 -203 -127 -277 -320
-702 -456 -1004 -64 -140 -139 -307 -168 -370 -29 -63 -52 -116 -51 -116 0 -1
241 -3 533 -5 293 -2 533 -7 533 -11 0 -12 -2392 -3609 -2397 -3605 -3 3 604
2410 633 2510 5 16 -23 17 -486 17 l-490 0 5 23 c3 12 23 108 44 212 22 105
105 503 186 885 80 382 177 846 216 1030 38 184 84 404 102 488 l32 152 927 0
c511 0 928 -2 928 -3z"/>
<path d="M4491 7293 c-5 -21 -50 -236 -101 -478 -50 -242 -129 -618 -175 -835
-102 -478 -215 -1018 -215 -1025 0 -3 223 -5 496 -5 467 0 495 -1 490 -17 -20
-72 -392 -1526 -411 -1608 -4 -19 -3 -26 3 -20 5 6 355 530 776 1165 l766
1155 -492 2 c-271 2 -498 5 -505 7 -8 3 15 65 68 183 45 98 97 214 116 258 20
44 102 226 183 405 311 685 380 839 380 845 0 3 -308 5 -685 5 l-684 0 -10
-37z"/>
</g>
</svg>
